<svg id="Layer_1" data-name="Layer 1" xmlns="http://www.w3.org/2000/svg" viewBox="0 0 199.95 250"><defs><style>.cls-1{fill:#bd8fc1;}.cls-2{fill:#fff;}</style></defs><title>blog_icons</title><circle class="cls-1" cx="99.98" cy="125" r="77.68"/><rect class="cls-2" x="65.53" y="99.6" width="28.9" height="6.19" rx="2.88" ry="2.88"/><rect class="cls-2" x="105.53" y="110.38" width="28.9" height="6.19" rx="2.88" ry="2.88"/><rect class="cls-2" x="65.53" y="122.06" width="28.9" height="6.19" rx="2.88" ry="2.88"/><rect class="cls-2" x="105.53" y="132.92" width="28.9" height="6.19" rx="2.88" ry="2.88"/><rect class="cls-2" x="65.53" y="144.09" width="28.9" height="6.19" rx="2.88" ry="2.88"/><rect class="cls-2" x="105.53" y="99.66" width="28.9" height="6.19" rx="2.88" ry="2.88"/><rect class="cls-2" x="65.53" y="110.76" width="28.9" height="6.19" rx="2.88" ry="2.88"/><rect class="cls-2" x="105.53" y="121.34" width="28.9" height="6.19" rx="2.88" ry="2.88"/><rect class="cls-2" x="65.53" y="133.45" width="28.9" height="6.19" rx="2.88" ry="2.88"/><rect class="cls-2" x="105.53" y="144.2" width="28.9" height="6.19" rx="2.88" ry="2.88"/></svg>