<svg id="Layer_1" data-name="Layer 1" xmlns="http://www.w3.org/2000/svg" viewBox="0 0 199.95 250"><defs><style>.cls-1{fill:#bd8fc1;}.cls-2{fill:#fff;}</style></defs><title>blog_icons</title><circle class="cls-1" cx="99.98" cy="125" r="77.68"/><path class="cls-2" d="M77.41,148.33s2.5,10,8.47,11.18l11.46,1s9,0.48,10.42-10.36Zm18.41,8.4L88.32,156c-3.91-.74-5.55-7.32-5.55-7.32l19.89,1.21C101.75,157,95.82,156.72,95.82,156.72Z"/><path class="cls-2" d="M103.93,90.09c-2.69,1.08-4.69,3.45-5.95,6.72L66.25,132.64l0,0.06a9,9,0,0,0,6.87,15.41l47,3.6c3.09,1.42,6.1,1.72,8.73.67,8.65-3.46,10.08-20.21,3.2-37.41S112.58,86.63,103.93,90.09Zm21.82,55.73c-5.74,2.3-14.7-6.61-20-19.89s-5-25.91.77-28.2,14.7,6.61,20,19.89S131.49,143.52,125.75,145.82Z"/><path class="cls-2" d="M107.42,116.33c1.86-.33,8.06-0.94,10.35,4.77,0,0,2.38,6.93-3.68,10.44a0.55,0.55,0,0,1-.65-0.08c-1.06-1-4.63-5.06-6.45-14.49A0.54,0.54,0,0,1,107.42,116.33Z"/></svg>