<svg id="Layer_1" data-name="Layer 1" xmlns="http://www.w3.org/2000/svg" viewBox="0 0 800 250"><defs><style>.cls-1{fill:#0079bf;}.cls-2{fill:#fff;}.cls-3{fill:#e1e4e6;}.cls-4{fill:#333;}.cls-5{fill:#80929c;}.cls-6{fill:#576d7a;}.cls-7{fill:#d5dbde;}.cls-8{fill:#f0f1f2;}.cls-9{fill:#bec7cc;}.cls-10{fill:#ffd2d4;}.cls-11{fill:#e8afb3;}.cls-12{fill:#d0868f;}.cls-13{fill:#ffb0e1;}.cls-14{fill:#fcdef0;}.cls-15,.cls-20,.cls-21{fill:none;stroke-linecap:round;}.cls-15{stroke:#e76eb1;stroke-width:3px;}.cls-15,.cls-21{stroke-linejoin:round;}.cls-16{font-size:52.21px;fill:#fac6e5;font-family:Factoria;}.cls-17{letter-spacing:-4px;}.cls-18{letter-spacing:-1px;}.cls-19{fill:#ffab4a;}.cls-20{stroke:#fce8d2;stroke-miterlimit:10;}.cls-20,.cls-21{stroke-width:2px;}.cls-21{stroke:#fdc788;}</style></defs><title>header</title><path class="cls-1" d="M369.71,219.9a0.72,0.72,0,0,1-.45-0.6,14.57,14.57,0,0,1,.95-6.3c1.33-3.44,53.85-.41,60.11,0a0.71,0.71,0,0,1,.67.65c0.13,1.44.39,5-.09,6.74a0.67,0.67,0,0,1-.37.42C427.64,222.15,402.09,233.48,369.71,219.9Z"/><path class="cls-2" d="M348.52,210.86l1.84-4.79a28.55,28.55,0,0,0-6.32.66s-0.2-25.88,9.33-45.79c0,0-7.83-28.92,10.89-59.12,0,0,1.42-3,4.44-.66,0,0,16.75,11.92,24.33,32.59,0,0,5.25-1.16,15.21.07,0,0,10.57-24.62,24.62-32.74,0,0,3.21-2.25,5.32,2.11,0,0,16.77,29.38,9.64,58.41,0,0,8.92,15.62,8.06,44.77,0,0-5.14-1.1-6.76.34l1.8,4.33s-5.59-.9-6.68-0.27-39.58,21-89.23-.72Z"/><path class="cls-3" d="M348.62,210.86l1.84-4.79a28.55,28.55,0,0,0-6.32.66s15.57-16.64,40.44.88c0,0,11.68,13,30.92,2,0,0,21.87-18.1,40.47-3.23,0,0-5.14-1.1-6.76.34l1.8,4.33s-5.59-.9-6.68-0.27-39.58,21-89.23-.72Z"/><path class="cls-4" d="M383.26,203.65s2.74,20.88,17.54,22.54c0,0,16.3-.43,18.54-24.38C419.34,201.81,403,220.41,383.26,203.65Z"/><path class="cls-5" d="M374.47,154.26c-20.95,9.68-10.66,29.93-10.66,29.93S350.22,179.88,344,207c0,0-.2-25.88,9.33-45.79,0,0-7.83-28.92,10.89-59.12,0,0,1.42-3,4.44-.66,0,0,16.75,11.92,24.33,32.59,0,0,5.25-1.16,15.21.07,0,0,10.57-24.62,24.62-32.74,0,0,3.21-2.25,5.32,2.11,0,0,16.77,29.38,9.64,58.41,0,0,8.92,15.62,8.06,44.77,0,0-2.88-25.87-18.95-22.84-0.45-.87,9.28-18.94-8.26-28.49-20.13-11-28.21,8.43-28.21,8.43S392.7,145.83,374.47,154.26Z"/><path class="cls-6" d="M374.47,154.26c-20.95,9.68-10.66,29.93-10.66,29.93S350.22,179.88,344,207c0,0-.2-25.88,9.33-45.79,0,0-7.83-28.92,10.89-59.12,0,0,1.42-3,4.44-.66,0,0,16.75,11.92,24.33,32.59a22.06,22.06,0,0,1,7.16-.56s-8.36,2.61-14,9.21a12.52,12.52,0,0,1,8-1.06,34.53,34.53,0,0,0-7.79,3.62s9,2,8.59,2.86c-1.61,3.66,5.43,15.65,5.43,15.65S392.7,145.83,374.47,154.26Z"/><path class="cls-7" d="M445,155.81a42.59,42.59,0,0,0,.94-21.13c-1.64-7.51-3.54-20.78-9.35-29.18-0.63-.91-1.87-3.19-4.44-0.13a60.84,60.84,0,0,0-11.09,23.06c-0.55,2.44-2.59,6.67,5,8.64C432.47,138.73,441.1,141.86,445,155.81Z"/><path class="cls-8" d="M431.7,131.83s5.46,1.91,6,7a0.08,0.08,0,0,1-.11.07,34.14,34.14,0,0,0-12.15-5.48c-1.15-.24-3.21-0.45-2.37-4.08a59.57,59.57,0,0,1,7.86-17.46,0.07,0.07,0,0,1,.12,0,10.91,10.91,0,0,1,.29,10.52s1.54-3.81,5.08-4.35a0.06,0.06,0,0,1,.08.07c-0.06.76-.67,6.78-4.52,9.16a15.82,15.82,0,0,1,6.85-.71,0.07,0.07,0,0,1,0,.12C438.35,127.26,435.32,130.59,431.7,131.83Z"/><path class="cls-9" d="M356.89,155.81a42.59,42.59,0,0,1-.94-21.13c1.64-7.51,3.54-20.78,9.35-29.18,0.63-.91,1.87-3.19,4.44-0.13a60.84,60.84,0,0,1,11.09,23.06c0.55,2.44,2.59,6.67-5,8.64C369.4,138.73,360.78,141.86,356.89,155.81Z"/><path class="cls-7" d="M370.17,131.83s-5.46,1.91-6,7a0.08,0.08,0,0,0,.11.07,34.14,34.14,0,0,1,12.15-5.48c1.15-.24,3.21-0.45,2.37-4.08a59.57,59.57,0,0,0-7.86-17.46,0.07,0.07,0,0,0-.12,0,10.91,10.91,0,0,0-.29,10.52s-1.54-3.81-5.08-4.35a0.06,0.06,0,0,0-.08.07c0.06,0.76.67,6.78,4.52,9.16a15.82,15.82,0,0,0-6.85-.71,0.07,0.07,0,0,0,0,.12C363.52,127.26,366.56,130.59,370.17,131.83Z"/><path class="cls-1" d="M419.51,164h-1.62c-2.07,0-5.8,4-4.9,9.7a4.15,4.15,0,0,0,3.9,3.77h3.62a4,4,0,0,0,4-3.77C424.62,166.48,421.58,164,419.51,164Z"/><circle cx="418.86" cy="171.05" r="3.76"/><ellipse class="cls-2" cx="417.84" cy="168.13" rx="2.2" ry="2.6"/><path class="cls-1" d="M380.93,164h1.62c2.07,0,5.8,4,4.9,9.7a4.15,4.15,0,0,1-3.9,3.77h-3.62a4,4,0,0,1-4-3.77C375.82,166.48,378.86,164,380.93,164Z"/><circle cx="381.59" cy="171.05" r="3.76"/><ellipse class="cls-2" cx="380.88" cy="168.13" rx="2.2" ry="2.6"/><path class="cls-4" d="M410.11,196.23c-0.28-5-8.1-4.35-9.92-4.35s-9.73-.21-9.88,4.35c-0.19,5.86,4.5,7.37,9.86,7.37S410.44,202.18,410.11,196.23Z"/><path class="cls-10" d="M388.56,208.49v14.09a11.6,11.6,0,0,0,11.57,11.57h1a11.6,11.6,0,0,0,11.57-11.57V208.49L400,211.57Z"/><path class="cls-11" d="M403.55,231.48h-1a11.47,11.47,0,0,1-11.29-11.57v-4.33a15.4,15.4,0,0,0,10.37,3.63c5.41,0,9.42-2,11.09-5.15v-5.57L400,211.57l-11.42-3.07v14.09a11.6,11.6,0,0,0,11.57,11.57h1a11.61,11.61,0,0,0,10.93-7.83A9.57,9.57,0,0,1,403.55,231.48Z"/><path class="cls-11" d="M397.85,211.89s4,10.37,3.37,14.31a24.05,24.05,0,0,0,3-15.25Z"/><path class="cls-12" d="M397.87,211.9l2.36,7.26a16.4,16.4,0,0,0,3.65,0s0.84-1.52.31-8.18Z"/><path class="cls-4" d="M380.35,197s1.64,13,17.67,14.74c4.08,0.43,19.25-.9,23-13.5,0,0-4.94,11.66-21.16,11.7C394.09,210,386.62,207.46,380.35,197Z"/><rect class="cls-13" x="31.4" y="128.72" width="28.9" height="6.19" rx="2.88" ry="2.88" transform="translate(-27.12 12.85) rotate(-12.34)"/><rect class="cls-13" x="74.74" y="130.28" width="28.9" height="6.19" rx="2.88" ry="2.88" transform="translate(-26.45 22.15) rotate(-12.34)"/><rect class="cls-13" x="38.97" y="150.05" width="28.9" height="6.19" rx="2.88" ry="2.88" transform="translate(-31.5 14.96) rotate(-12.34)"/><rect class="cls-13" x="77.19" y="152.82" width="28.9" height="6.19" rx="2.88" ry="2.88" transform="translate(-31.21 23.19) rotate(-12.34)"/><rect class="cls-13" x="41.38" y="172.08" width="28.9" height="6.19" rx="2.88" ry="2.88" transform="translate(-36.16 15.98) rotate(-12.34)"/><rect class="cls-14" x="68.26" y="120.72" width="28.9" height="6.19" rx="2.88" ry="2.88" transform="translate(-24.56 20.54) rotate(-12.34)"/><rect class="cls-14" x="41.07" y="138.02" width="28.9" height="6.19" rx="2.88" ry="2.88" transform="translate(-28.88 15.13) rotate(-12.34)"/><rect class="cls-14" x="79.83" y="140.38" width="28.9" height="6.19" rx="2.88" ry="2.88" transform="translate(-28.49 23.47) rotate(-12.34)"/><rect class="cls-14" x="43.16" y="160.8" width="28.9" height="6.19" rx="2.88" ry="2.88" transform="translate(-33.7 16.1) rotate(-12.34)"/><rect class="cls-14" x="83.54" y="162.97" width="28.9" height="6.19" rx="2.88" ry="2.88" transform="translate(-33.23 24.79) rotate(-12.34)"/><path class="cls-13" d="M515.34,95s2.5,10,8.47,11.18l11.46,1s9,0.48,10.42-10.36Zm18.41,8.4-7.51-.68c-3.91-.74-5.55-7.32-5.55-7.32l19.89,1.21C539.67,103.69,533.75,103.38,533.75,103.38Z"/><path class="cls-13" d="M541.85,36.75c-2.69,1.08-4.69,3.45-5.95,6.72L504.17,79.3l0,0.06a9,9,0,0,0,6.87,15.41l47,3.6c3.09,1.42,6.1,1.72,8.73.67,8.65-3.46,10.08-20.21,3.2-37.41S550.5,33.29,541.85,36.75Zm21.82,55.73c-5.74,2.3-14.7-6.61-20-19.89s-5-25.91.77-28.2,14.7,6.61,20,19.89S569.41,90.18,563.67,92.48Z"/><path class="cls-13" d="M545.35,63c1.86-.33,8.06-0.94,10.35,4.77,0,0,2.38,6.93-3.68,10.44a0.55,0.55,0,0,1-.65-0.08c-1.06-1-4.63-5.06-6.45-14.49A0.54,0.54,0,0,1,545.35,63Z"/><rect class="cls-14" x="226.5" y="71.97" width="10.86" height="25.15" rx="3.6" ry="3.6" transform="translate(51.63 -84.07) rotate(23.05)"/><rect class="cls-14" x="246.23" y="70.41" width="10.86" height="34.69" rx="3.6" ry="3.6" transform="translate(54.46 -91.54) rotate(23.05)"/><rect class="cls-14" x="266.45" y="71.08" width="10.86" height="42.3" rx="3.6" ry="3.6" transform="translate(57.82 -99.1) rotate(23.05)"/><polyline class="cls-15" points="235.97 61 262.67 50.24 268.92 65.75 293.33 55.92"/><text class="cls-16" transform="translate(632.27 184.57) rotate(12.07)"><tspan class="cls-17">7</tspan><tspan class="cls-18" x="26.26" y="0">4</tspan><tspan class="cls-14" x="58.11" y="0">%</tspan></text><circle class="cls-19" cx="243.21" cy="212.21" r="3.99"/><circle class="cls-19" cx="459.68" cy="56" r="3.99"/><circle class="cls-19" cx="664.13" cy="54.7" r="3.99"/><circle class="cls-19" cx="505.23" cy="208.54" r="3.99"/><circle class="cls-19" cx="747.81" cy="225.25" r="3.99"/><circle class="cls-19" cx="123.85" cy="224.21" r="3.99"/><circle class="cls-19" cx="180.03" cy="135.69" r="3.99"/><circle class="cls-19" cx="594.21" cy="155.58" r="3.99"/><circle class="cls-19" cx="752.05" cy="112.96" r="3.99"/><circle class="cls-19" cx="111.17" cy="69.77" r="3.99"/><circle class="cls-19" cx="24.69" cy="112.15" r="3.99"/><circle class="cls-19" cx="339.98" cy="67.66" r="3.99"/><path class="cls-20" d="M206.32,25.67a3.35,3.35,0,0,0-4.74,4.74"/><path class="cls-20" d="M410.92,68a3.35,3.35,0,1,0,0,6.71"/><path class="cls-20" d="M528.37,159.13a3.35,3.35,0,0,0,4.74-4.74"/><path class="cls-20" d="M600.15,20.52a3.35,3.35,0,1,0-4.74,4.74"/><path class="cls-20" d="M772,179.57a3.35,3.35,0,0,0,4.74-4.74"/><path class="cls-20" d="M183.44,204a3.35,3.35,0,1,0-4.74-4.74"/><path class="cls-20" d="M42.87,224.75a3.35,3.35,0,1,0,6.71,0"/><rect class="cls-21" x="161.45" y="77.7" width="6.71" height="6.71" transform="translate(105.58 -92.8) rotate(45)"/><rect class="cls-21" x="50.52" y="48.24" width="6.71" height="6.71" transform="translate(52.26 -22.98) rotate(45)"/><rect class="cls-21" x="133.24" y="11.1" width="6.71" height="6.71" transform="translate(50.22 -92.35) rotate(45)"/><rect class="cls-21" x="292.03" y="167.01" width="6.71" height="6.71" transform="translate(206.98 -158.97) rotate(45)"/><rect class="cls-21" x="574.17" y="222.12" width="6.71" height="6.71" transform="translate(328.58 -342.33) rotate(45)"/><rect class="cls-21" x="688.96" y="124.2" width="6.71" height="6.71" transform="translate(292.97 -452.18) rotate(45)"/><rect class="cls-21" x="727.79" y="20.9" width="6.71" height="6.71" transform="translate(231.3 -509.89) rotate(45)"/></svg>