<svg id="Layer_1" data-name="Layer 1" xmlns="http://www.w3.org/2000/svg" viewBox="0 0 800 250"><defs><style>.cls-1,.cls-2{fill:#8fdfeb;}.cls-2{stroke:#fff;}.cls-2,.cls-5,.cls-7,.cls-8{stroke-linecap:round;}.cls-2,.cls-8{stroke-linejoin:round;}.cls-3{fill:#fff;}.cls-4,.cls-5,.cls-7,.cls-8{fill:none;}.cls-5{stroke:#8fdfeb;stroke-width:7px;}.cls-5,.cls-7{stroke-miterlimit:10;}.cls-6{fill:#efb3ab;}.cls-7{stroke:#eb5a46;}.cls-7,.cls-8{stroke-width:2px;}.cls-8{stroke:#ef7564;}</style></defs><title>powerup</title><path class="cls-1" d="M304,47.67c-4,.34-4.31-4.52-2.2-7.76,0.09,0.25.16,0.43,0.21,0.62Z"/><path class="cls-2" d="M404.18,62.52L406.39,66a1.28,1.28,0,0,0,.23.31c2,1.65,2.7,3.93,3,6.36,0.27,2.06.46,4.14,0.66,6.21a1.37,1.37,0,0,0,.91,1.29A21.2,21.2,0,0,1,417.42,84a1.53,1.53,0,0,0,.57.29c3.34,1.13,4.26,4.84,2.07,7.13a0.87,0.87,0,0,0-.08.72c0.26,0.85.55,1.69,0.87,2.51a1,1,0,0,0,.51.55c2.38,0.89,3.59,2.81,2.79,5.18-2.61,7.73-6,15-12.62,20.29a29,29,0,0,1-15.38,6.4c-12.22,1.3-22.34-2.94-30.63-11.8-1.75-1.87-3.15-4.07-4.74-6.1a1.06,1.06,0,0,0-.71-0.38,11.83,11.83,0,0,1-11.59-10.14,12.11,12.11,0,0,1,.4-5.59,0.57,0.57,0,0,0-.27-0.74c-0.87-.64-1.7-1.34-2.59-2a7.57,7.57,0,0,1-3.25-6.47,22.59,22.59,0,0,1,2.13-9.31,64.67,64.67,0,0,1,10.71-16.75A60.3,60.3,0,0,1,368.7,46a22.53,22.53,0,0,1,7.87-3.44,8.13,8.13,0,0,1,7.36,1.77c0.7,0.62,1.46,1.16,2.17,1.77a0.69,0.69,0,0,0,1,.07,30.86,30.86,0,0,1,9-3.74,14.19,14.19,0,0,1,6.82-.1,7.24,7.24,0,0,1,5.57,6.86,18.82,18.82,0,0,1-2.16,9.33C405.65,59.94,404.86,61.26,404.18,62.52ZM386.7,48.87c-1.48-1.24-2.9-2.45-4.33-3.64a0.79,0.79,0,0,0-.61-0.22,5.39,5.39,0,0,1-3,.43,4.86,4.86,0,0,0-1.29.15,21,21,0,0,0-7.86,3.6,62.73,62.73,0,0,0-21,24.59,25.53,25.53,0,0,0-2.77,8.88c-0.14,1.56-.13,3.19.91,4.41a31.75,31.75,0,0,0,3.5,3.11c0.24-.29.36-0.47,0.51-0.62,0.95-.91,1.86-1.87,2.88-2.71a2.67,2.67,0,0,0,1-1.35,50.43,50.43,0,0,1,7.3-14.29A60.81,60.81,0,0,1,377.45,55.6l0.48-.32c-5.55,5.52-10.66,11.34-14.44,18.22a1.38,1.38,0,0,0,.43-0.37c3-3.47,5.95-6.9,8.84-10.41,4.73-5.74,10.56-10.19,16.66-14.33a29.39,29.39,0,0,1,7.6-3.62,1.35,1.35,0,0,0-.5,0A32,32,0,0,0,386.7,48.87Zm-21,44.67c-0.41-1.17-.76-2.36-1.24-3.5a3.15,3.15,0,0,0-2.16-1.82,8.48,8.48,0,0,0-4.8-.08,9.2,9.2,0,0,0-5.84,12.05,8.59,8.59,0,0,0,9.59,5.71,9,9,0,0,0,7.13-8.35c0-.67,0-1.34,0-2h-0.21L367.36,97a18.05,18.05,0,0,0-1-5.56Zm5.23-20.33c0.1-.11.21-0.22,0.3-0.33a35.58,35.58,0,0,1,5.78-5.6c5.32-4.1,11.15-7.05,17.94-7.77a12.18,12.18,0,0,1,5.77.57c0.38,0.15.75,0.34,1.18,0.55a6.34,6.34,0,0,0-4.25-3.37l0.55,0.85c-0.78-.38-1.45-0.75-2.14-1s-1.36-.47-2-0.7l-0.05.15,0.85,1.07a12,12,0,0,0-5.55-.48l1.81,1c-3.23-.31-6.87.4-7.68,1.21l2.46,0.36c-2,.69-4.09,1.21-5.77,2.59a6.78,6.78,0,0,0,1,0c0.32,0,.65,0,1.15,0A32,32,0,0,0,370.94,73.22Z"/><path class="cls-3" d="M419.21,99.29a38.08,38.08,0,0,1-7.56,5.25,27.77,27.77,0,0,1-13.49,3.55,9.68,9.68,0,0,1-4-.76,3.16,3.16,0,0,1-1.86-2.17,27.46,27.46,0,0,0,13.91-1.68,24.33,24.33,0,0,0,3.38-1.71c-2.86.7-5.7,1.51-8.58,2.09a18,18,0,0,1-8.79-.1,2,2,0,0,1,2.13-2.28c1.47-.09,3-0.1,4.41-0.29a31.88,31.88,0,0,0,18.11-8c0.06-.05.13-0.1,0.25-0.18a11.07,11.07,0,0,1,1.32,5l1-.1c1.74-.14,2.65,1,2,2.64s-1.37,3.46-2.22,5.1a23.26,23.26,0,0,1-17.66,12.8,20.7,20.7,0,0,1-7.82-.22,10.27,10.27,0,0,1-7.69-6.43c-0.08-.2-0.18-0.39-0.27-0.59a0.41,0.41,0,0,0-.11-0.06l-0.29,2a15,15,0,0,1-1.7-6l-1.16,2.28a14.1,14.1,0,0,1-.78-6.09l-0.72,1c-0.68-3.87.43-8.29,4.46-12.23-0.61-.32-1.23-0.6-1.81-0.95s-1.15-.74-1.85-1.21l1.25-.17a11.43,11.43,0,0,1-4.13-6.42l1.5,1.2-0.1-.75a13.06,13.06,0,0,1,.43-6.48,8.09,8.09,0,0,1,7.64-5.37c1.37,0,2.73.07,4.1,0.12a9.37,9.37,0,0,0,7.09-2.68A6.26,6.26,0,0,1,401.72,68a3.17,3.17,0,0,1,3.92,1.48,10.25,10.25,0,0,1,1.28,4.46c0.23,2,.44,4.05.65,6.08a2.85,2.85,0,0,0,1.9,2.54A18.62,18.62,0,0,1,416,86.69a1.44,1.44,0,0,0,.57.26,7.1,7.1,0,0,1,.86.28,1.36,1.36,0,0,1,.45,2.29A28.09,28.09,0,0,1,405.53,98,34.44,34.44,0,0,1,395,99.79a7.8,7.8,0,0,0-2,.22,4.19,4.19,0,0,0-2.58,4.78,5.12,5.12,0,0,0,3.07,4.07,10.78,10.78,0,0,0,4.95.9,28.67,28.67,0,0,0,19-8,22.81,22.81,0,0,0,1.9-2.27Z"/><path class="cls-3" d="M386.7,48.87a32,32,0,0,1,9.82-4.09,1.35,1.35,0,0,1,.5,0,29.39,29.39,0,0,0-7.6,3.62c-6.1,4.13-11.93,8.58-16.66,14.33-2.89,3.51-5.89,6.95-8.84,10.41a1.38,1.38,0,0,1-.43.37c3.78-6.88,8.89-12.7,14.44-18.22l-0.48.32a60.81,60.81,0,0,0-15.58,15.62,50.43,50.43,0,0,0-7.3,14.29,2.67,2.67,0,0,1-1,1.35c-1,.83-1.93,1.79-2.88,2.71-0.15.15-.27,0.33-0.51,0.62a31.75,31.75,0,0,1-3.5-3.11c-1-1.22-1-2.85-.91-4.41a25.53,25.53,0,0,1,2.77-8.88,62.73,62.73,0,0,1,21-24.59,21,21,0,0,1,7.86-3.6,4.86,4.86,0,0,1,1.29-.15,5.39,5.39,0,0,0,3-.43,0.79,0.79,0,0,1,.61.22C383.81,46.42,385.23,47.63,386.7,48.87Zm-6.39,4.49-6-5a3.16,3.16,0,0,0,1.41,3.22,5.57,5.57,0,0,1,.73.64L379,54.5Zm2.95-2.2L379.56,50l-0.06.11,2.41,2Zm-2.1-2.33-0.77-2.78c0-.07,0-0.14-0.08-0.24C379.49,47.07,379.62,49,381.16,48.83Zm4,1-1.73-1.45-0.09.09L384,50.62Z"/><path class="cls-3" d="M365.72,93.55l0.69-2.07a18.05,18.05,0,0,1,1,5.56l0.83-1.49h0.21c0,0.67,0,1.34,0,2a9,9,0,0,1-7.13,8.35,8.59,8.59,0,0,1-9.59-5.71,9.2,9.2,0,0,1,5.84-12.05,8.48,8.48,0,0,1,4.8.08A3.15,3.15,0,0,1,364.48,90C365,91.18,365.31,92.38,365.72,93.55ZM355.63,97.1c0.1-2.52,1.31-4.1,3.58-4.57a3.38,3.38,0,0,1,4,2.23,1.23,1.23,0,0,0,.27.31,1.34,1.34,0,0,0,.43-0.41,2.31,2.31,0,0,0-.4-2,4.86,4.86,0,0,0-5.14-1.77,5.38,5.38,0,0,0-4.14,6,3.71,3.71,0,0,0,1.25,2.62,1.61,1.61,0,0,0,.59.15,2.36,2.36,0,0,0,0-.59C356,98.43,355.79,97.76,355.63,97.1Zm4.37,4.4-0.11.22a5.57,5.57,0,0,0,1.12.63,3.19,3.19,0,0,0,3.8-3.55c-0.11-1.39-1.08-2.08-2.2-2.65s-1.25-.92-0.32-1.85a0.14,0.14,0,0,0,0-.06,1,1,0,0,0-1.57.73,1.67,1.67,0,0,0,.49,1.72,10.29,10.29,0,0,0,1.14.85,1.85,1.85,0,0,1,.95,2.31,2.25,2.25,0,0,1-2.1,1.65C360.81,101.51,360.4,101.49,360,101.49Z"/><path class="cls-3" d="M370.94,73.22a32,32,0,0,1,11.25-11c-0.5,0-.82,0-1.15,0a6.78,6.78,0,0,1-1,0c1.69-1.38,3.73-1.9,5.77-2.59l-2.46-.36c0.81-.8,4.45-1.52,7.68-1.21l-1.81-1a12,12,0,0,1,5.55.48L394,56.52l0.05-.15c0.68,0.23,1.38.43,2,.7s1.36,0.65,2.14,1l-0.55-.85a6.34,6.34,0,0,1,4.25,3.37c-0.44-.2-0.8-0.4-1.18-0.55a12.18,12.18,0,0,0-5.77-.57c-6.79.72-12.62,3.67-17.94,7.77a35.58,35.58,0,0,0-5.78,5.6C371.15,73,371,73.11,370.94,73.22Z"/><path class="cls-1" d="M394.76,84.19a22.68,22.68,0,0,0-4.6-.86,22,22,0,0,0-4.5,1,3.86,3.86,0,0,1,.31-0.7c1.81-2.49,6.39-2.62,8.33-.25A6.8,6.8,0,0,1,394.76,84.19Z"/><path class="cls-1" d="M405.23,80.83l-2.75-.46a5.74,5.74,0,0,1-.23-3.27c0.23-.84.86-1,1.44-0.39A6.61,6.61,0,0,1,405.23,80.83Z"/><path class="cls-1" d="M394.44,86.24a8.88,8.88,0,0,0-5.27.83c0-.83.77-1.56,1.94-1.86C392.54,84.85,393.91,85.21,394.44,86.24Z"/><path class="cls-1" d="M401.49,86.74a1.69,1.69,0,0,1-1.65-1.43,0.9,0.9,0,0,1,1-.84,1.68,1.68,0,0,1,1.68,1.4A0.88,0.88,0,0,1,401.49,86.74Z"/><path class="cls-1" d="M406.08,84.07a1.31,1.31,0,0,1-1,1.37,1.06,1.06,0,0,1-.84-1.14,1.25,1.25,0,0,1,1-1.32A1,1,0,0,1,406.08,84.07Z"/><path class="cls-1" d="M380.31,53.37L379,54.5l-2.58-2.26a5.57,5.57,0,0,0-.73-0.64,3.16,3.16,0,0,1-1.41-3.22Z"/><path class="cls-1" d="M383.26,51.16l-1.35,1-2.41-2,0.06-.11Z"/><path class="cls-1" d="M385.19,49.84l-1.19.78-0.63-2.14,0.09-.09Z"/><path class="cls-1" d="M355.63,97.1c0.16,0.67.33,1.33,0.47,2a2.36,2.36,0,0,1,0,.59,1.61,1.61,0,0,1-.59-0.15,3.71,3.71,0,0,1-1.25-2.62,5.38,5.38,0,0,1,4.14-6,4.86,4.86,0,0,1,5.14,1.77,2.31,2.31,0,0,1,.4,2,1.34,1.34,0,0,1-.43.41,1.23,1.23,0,0,1-.27-0.31,3.38,3.38,0,0,0-4-2.23C356.94,93,355.73,94.58,355.63,97.1Z"/><path class="cls-1" d="M360,101.49c0.4,0,.81,0,1.21,0a2.25,2.25,0,0,0,2.1-1.65,1.85,1.85,0,0,0-.95-2.31,10.29,10.29,0,0,1-1.14-.85,1.67,1.67,0,0,1-.49-1.72,1,1,0,0,1,1.57-.73,0.14,0.14,0,0,1,0,.06c-0.92.93-.88,1.24,0.32,1.85s2.09,1.26,2.2,2.65a3.19,3.19,0,0,1-3.8,3.55,5.57,5.57,0,0,1-1.12-.63Z"/><rect class="cls-4" x="331.43" y="32.49" width="104.11" height="104.11"/><rect class="cls-3" x="469.67" y="146.48" width="71.96" height="71.61" rx="25.2" ry="25.2" transform="translate(131.77 -203.88) rotate(26.1)"/><line class="cls-5" x1="505.76" y1="161.23" x2="489.17" y2="194.29"/><line class="cls-5" x1="522.36" y1="169.47" x2="505.76" y2="202.53"/><line class="cls-5" x1="526.67" y1="181.92" x2="493.62" y2="165.33"/><line class="cls-5" x1="518.44" y1="198.52" x2="485.38" y2="181.92"/><path class="cls-3" d="M163.07,174.92l10.65-17.42a0.06,0.06,0,0,1,.12,0c-0.18,1.17-.53,5.34,2,12.36a0.65,0.65,0,0,1-.47.86c-2.31.49-9.49,2.14-12.21,4.24A0.06,0.06,0,0,1,163.07,174.92Z"/><path class="cls-3" d="M225.61,157a6.86,6.86,0,0,0-6.54-4.75c-7.14-.74-20.72,3.06-20.72,3.06-4-8.68-18.56-1.58-18.56-1.58a6.27,6.27,0,0,0-3.74,6.13l2.16,8.68c1,4.22-2.66,4.41-2.66,4.41a62.06,62.06,0,0,0-7.94,2.15,6.1,6.1,0,0,0-4.56,6.93c0.74,5.92,10.77,24.22,10.77,24.22a6.59,6.59,0,0,0,5.06,3.44c5.17,0.91,18.89-.41,18.89-0.41,5.22-.28,4.7-3.74,4.7-3.74,1-3.16-.64-11.57-0.64-11.57,1.17,6.89,5.73,8.34,5.73,8.34,2.5,0.8,11.86-.84,11.86-0.84,3.13,0,4.23,1.73,4.23,1.73,2.71,2.72,4,10.74,4,10.74a3.68,3.68,0,0,1-2.24,3.54,35.71,35.71,0,0,1-7.49,2.06,2.76,2.76,0,0,1-2.79-.59,4.39,4.39,0,0,1-.92-4c0.59-2,4.81-2.75,4.81-2.75a6.85,6.85,0,0,1-1.65-5.28c-10.56,1.4-12.28,6.5-9.65,14.42s8.41,6.75,8.41,6.75c7.05-.3,15.22-3.52,15.22-3.52,5.28-1.58,5.83-12.13,5.83-12.13,1.6-7.92-2.84-28.45-2.84-28.45C232.45,175.15,225.61,157,225.61,157Zm-3.75,27a18.44,18.44,0,0,0-8.63,1c-0.43-5.74,3.68-5.76,3.68-5.76C221.1,179.1,221.86,184.06,221.86,184.06Z"/><polygon class="cls-3" points="83.07 47.93 106.48 47.93 129.04 87.62 104.42 87.62 83.07 47.93"/><polygon class="cls-3" points="130.33 90.03 83.24 89.08 71.87 108.8 118.45 109.06 130.33 90.03"/><polygon class="cls-3" points="69.55 108.63 92.72 69.6 81.52 49.23 59.56 87.88 69.55 108.63"/><path class="cls-3" d="M752.5,55c-2,1.63-7.31,3.51-9,4.09l-0.06-.13a14.81,14.81,0,0,0,6.16-10.17A29.63,29.63,0,0,1,739.43,54a16.28,16.28,0,0,0-25.5,18.71,46.36,46.36,0,0,1-36.31-12.88c-5.93,14.76,7.51,21.24,7.51,21.24-2.95.63-7.59-1.17-7.59-1.17,2.34,14.33,15,14.73,15,14.73-2.93,1.76-7,1.15-7,1.15,5.2,11.06,16.61,9.61,16.61,9.61-9.61,10.69-23.32,9.92-23.32,9.92,15.63,8.85,34.87,2.48,34.87,2.48,17.61-4.27,27.26-22.53,27.26-22.53,7.85-16.66,4.31-30,4.31-30C749.12,61.77,752.5,55,752.5,55Z"/><circle class="cls-6" cx="287.98" cy="216.51" r="3.99"/><circle class="cls-6" cx="461.99" cy="41.95" r="3.99"/><circle class="cls-6" cx="636.64" cy="81.46" r="3.99"/><circle class="cls-6" cx="387.32" cy="220.41" r="3.99"/><circle class="cls-6" cx="749.55" cy="229.99" r="3.99"/><circle class="cls-6" cx="125.59" cy="228.96" r="3.99"/><circle class="cls-6" cx="99.04" cy="156.68" r="3.99"/><circle class="cls-6" cx="595.95" cy="160.32" r="3.99"/><circle class="cls-6" cx="751.57" cy="134.05" r="3.99"/><circle class="cls-6" cx="203.32" cy="98.01" r="3.99"/><circle class="cls-6" cx="28.92" cy="145.74" r="3.99"/><circle class="cls-6" cx="302.91" cy="35.36" r="3.99"/><path class="cls-7" d="M208.05,30.41a3.35,3.35,0,0,0-4.74,4.74"/><path class="cls-7" d="M415,158.13a3.35,3.35,0,0,0,0,6.71"/><path class="cls-7" d="M510.35,95a3.35,3.35,0,0,0,4.74-4.74"/><path class="cls-7" d="M601.89,25.26A3.35,3.35,0,0,0,597.14,30"/><path class="cls-7" d="M773.72,184.31a3.35,3.35,0,1,0,4.74-4.74"/><path class="cls-7" d="M299.13,123.86a3.35,3.35,0,0,0-4.74-4.74"/><path class="cls-7" d="M44.6,229.5a3.35,3.35,0,1,0,6.71,0"/><rect class="cls-8" x="534.56" y="11.01" width="6.71" height="6.71" transform="translate(167.7 -376.15) rotate(45)"/><rect class="cls-8" x="27.31" y="21.62" width="6.71" height="6.71" transform="translate(26.64 -14.37) rotate(45)"/><rect class="cls-8" x="134.97" y="15.84" width="6.71" height="6.71" transform="translate(54.09 -92.19) rotate(45)"/><rect class="cls-8" x="333.5" y="174.11" width="6.71" height="6.71" transform="translate(224.15 -186.21) rotate(45)"/><rect class="cls-8" x="575.9" y="226.86" width="6.71" height="6.71" transform="translate(332.45 -342.17) rotate(45)"/><rect class="cls-8" x="672.9" y="189.13" width="6.71" height="6.71" transform="translate(334.18 -421.8) rotate(45)"/><rect class="cls-8" x="775.03" y="12.53" width="6.71" height="6.71" transform="translate(239.21 -545.75) rotate(45)"/></svg>